<svg xmlns="http://www.w3.org/2000/svg" viewBox="0 0 900 540" role="img" aria-label="Mediator model for risk perception and brand equity research">
  <rect width="900" height="540" fill="#071426"/>
  <path d="M0 108h900M0 216h900M0 324h900M0 432h900M150 0v540M300 0v540M450 0v540M600 0v540M750 0v540" stroke="#16324e" stroke-width="1"/>
  <rect x="78" y="192" width="190" height="110" rx="8" fill="#0b1f35" stroke="#55d6ff" stroke-width="4"/>
  <rect x="355" y="118" width="190" height="110" rx="8" fill="#0b1f35" stroke="#c8a642" stroke-width="4"/>
  <rect x="632" y="192" width="190" height="110" rx="8" fill="#0b1f35" stroke="#62f0bf" stroke-width="4"/>
  <rect x="355" y="318" width="190" height="80" rx="8" fill="#10263f" stroke="#55d6ff" stroke-width="3"/>
  <path d="M268 247h78M545 173c64 0 72 74 87 74M268 247c62 0 75-74 87-74M450 228v90M545 358h74c52 0 72-48 72-56" fill="none" stroke="#edf6ff" stroke-width="5" stroke-linecap="round"/>
  <polygon points="346,247 326,236 326,258" fill="#edf6ff"/>
  <polygon points="632,247 612,236 612,258" fill="#edf6ff"/>
  <polygon points="450,318 439,298 461,298" fill="#edf6ff"/>
  <text x="111" y="236" fill="#edf6ff" font-family="Arial" font-size="22" font-weight="700">Risk</text>
  <text x="103" y="264" fill="#a7c2dc" font-family="Arial" font-size="18">Perception</text>
  <text x="393" y="160" fill="#edf6ff" font-family="Arial" font-size="22" font-weight="700">Mediator</text>
  <text x="390" y="188" fill="#a7c2dc" font-family="Arial" font-size="18">Trust / Loyalty</text>
  <text x="670" y="236" fill="#edf6ff" font-family="Arial" font-size="22" font-weight="700">Brand</text>
  <text x="670" y="264" fill="#a7c2dc" font-family="Arial" font-size="18">Equity</text>
  <text x="388" y="365" fill="#edf6ff" font-family="Arial" font-size="22" font-weight="700">SPSS + SMARTPLS</text>
  <text x="80" y="86" fill="#55d6ff" font-family="Arial" font-size="24" font-weight="700">RESEARCH / MEDIATION MODELING</text>
  <text x="80" y="455" fill="#edf6ff" font-family="Arial" font-size="38" font-weight="700">Risk Perception &amp; Brand Equity</text>
  <text x="80" y="492" fill="#a7c2dc" font-family="Arial" font-size="20">mediator paths - survey data - statistical interpretation</text>
</svg>

