<svg xmlns="http://www.w3.org/2000/svg" viewBox="0 0 900 540" role="img" aria-label="Corporate uncertainty index visual">
  <rect width="900" height="540" fill="#071426"/>
  <path d="M90 370h720M90 300h720M90 230h720M90 160h720" stroke="#16324e"/>
  <path d="M120 320 220 285 320 302 420 250 520 270 620 180 760 210" fill="none" stroke="#55d6ff" stroke-width="5"/>
  <path d="M120 350 220 330 320 310 420 325 520 250 620 238 760 280" fill="none" stroke="#c8a642" stroke-width="5"/>
  <path d="M120 275 220 260 320 220 420 250 520 190 620 160 760 130" fill="none" stroke="#62f0bf" stroke-width="5"/>
  <circle cx="620" cy="180" r="12" fill="#55d6ff"/>
  <circle cx="620" cy="238" r="12" fill="#c8a642"/>
  <circle cx="620" cy="160" r="12" fill="#62f0bf"/>
  <text x="92" y="95" fill="#55d6ff" font-family="Arial" font-size="24" font-weight="700">TEXT ANALYTICS / FINANCE</text>
  <text x="92" y="455" fill="#edf6ff" font-family="Arial" font-size="38" font-weight="700">Corporate Uncertainty Index</text>
  <text x="92" y="492" fill="#a7c2dc" font-family="Arial" font-size="20">earnings calls · Loughran-McDonald · stock reaction</text>
</svg>
